<svg width="22" height="20" viewBox="0 0 22 20" fill="none" xmlns="http://www.w3.org/2000/svg">
<path fill-rule="evenodd" clip-rule="evenodd" d="M4.86948 1.5C1.85063 1.5 1.85063 1.708 1.85063 4.25V4.275C1.85063 5.382 1.85063 6.182 2.14812 6.52C2.43903 6.848 3.30297 7 4.86948 7C6.43599 7 7.29994 6.847 7.59084 6.519C7.88834 6.182 7.88834 5.382 7.88834 4.274C7.88834 1.708 7.88834 1.5 4.86948 1.5M4.86948 8.5C3.01865 8.5 1.62998 8.323 0.86703 7.46C0.203979 6.711 0.203979 5.689 0.203979 4.275L1.0273 4.25H0.203979C0.203979 1.38 0.402675 0 4.86948 0C9.33629 0 9.53498 1.38 9.53498 4.25C9.53498 5.688 9.53498 6.711 8.87193 7.46C8.10899 8.323 6.72031 8.5 4.86948 8.5" fill="#45AA43"/>
<path fill-rule="evenodd" clip-rule="evenodd" d="M16.9449 1.5C13.9261 1.5 13.9261 1.708 13.9261 4.25V4.275C13.9261 5.382 13.9261 6.182 14.2236 6.52C14.5145 6.848 15.3784 7 16.9449 7C18.5114 7 19.3754 6.847 19.6663 6.519C19.9638 6.182 19.9638 5.382 19.9638 4.274C19.9638 1.708 19.9638 1.5 16.9449 1.5M16.9449 8.5C15.0941 8.5 13.7054 8.323 12.9425 7.46C12.2794 6.711 12.2794 5.689 12.2794 4.275L13.1027 4.25H12.2794C12.2794 1.38 12.4781 0 16.9449 0C21.4117 0 21.6104 1.38 21.6104 4.25C21.6104 5.688 21.6104 6.711 20.9474 7.46C20.1844 8.323 18.7958 8.5 16.9449 8.5" fill="#45AA43"/>
<path fill-rule="evenodd" clip-rule="evenodd" d="M4.86948 12.5C1.85063 12.5 1.85063 12.708 1.85063 15.25V15.275C1.85063 16.382 1.85063 17.182 2.14812 17.52C2.43903 17.848 3.30297 18 4.86948 18C6.43599 18 7.29994 17.847 7.59084 17.519C7.88834 17.182 7.88834 16.382 7.88834 15.274C7.88834 12.708 7.88834 12.5 4.86948 12.5M4.86948 19.5C3.01865 19.5 1.62998 19.323 0.86703 18.46C0.203979 17.711 0.203979 16.689 0.203979 15.275L1.0273 15.25H0.203979C0.203979 12.38 0.402675 11 4.86948 11C9.33629 11 9.53498 12.38 9.53498 15.25C9.53498 16.688 9.53498 17.711 8.87193 18.46C8.10899 19.323 6.72031 19.5 4.86948 19.5" fill="#45AA43"/>
<path fill-rule="evenodd" clip-rule="evenodd" d="M16.9449 12.5C13.9261 12.5 13.9261 12.708 13.9261 15.25V15.275C13.9261 16.382 13.9261 17.182 14.2236 17.52C14.5145 17.848 15.3784 18 16.9449 18C18.5114 18 19.3754 17.847 19.6663 17.519C19.9638 17.182 19.9638 16.382 19.9638 15.274C19.9638 12.708 19.9638 12.5 16.9449 12.5M16.9449 19.5C15.0941 19.5 13.7054 19.323 12.9425 18.46C12.2794 17.711 12.2794 16.689 12.2794 15.275L13.1027 15.25H12.2794C12.2794 12.38 12.4781 11 16.9449 11C21.4117 11 21.6104 12.38 21.6104 15.25C21.6104 16.688 21.6104 17.711 20.9474 18.46C20.1844 19.323 18.7958 19.5 16.9449 19.5" fill="#45AA43"/>
</svg>
