<svg width="21" height="20" viewBox="0 0 21 20" fill="none" xmlns="http://www.w3.org/2000/svg">
<mask id="mask0_382_2992" style="mask-type:luminance" maskUnits="userSpaceOnUse" x="0" y="0" width="21" height="20">
<path fill-rule="evenodd" clip-rule="evenodd" d="M0.351807 0H20.2924V19.9098H0.351807V0Z" fill="white"/>
</mask>
<g mask="url(#mask0_382_2992)">
<path fill-rule="evenodd" clip-rule="evenodd" d="M14.5226 1.5L6.0819 1.504C3.5263 1.518 1.99821 2.958 1.99821 5.357V14.553C1.99821 16.968 3.54057 18.41 6.12142 18.41L14.5621 18.407C17.1177 18.393 18.6458 16.951 18.6458 14.553V5.357C18.6458 2.942 17.1046 1.5 14.5226 1.5ZM6.12251 19.91C2.67114 19.91 0.351562 17.757 0.351562 14.553V5.357C0.351562 2.124 2.59869 0.023 6.07641 0.004L14.5215 0H14.5226C17.974 0 20.2925 2.153 20.2925 5.357V14.553C20.2925 17.785 18.0453 19.887 14.5676 19.907L6.12251 19.91Z" fill="#45AA43"/>
</g>
</svg>
