<svg width="24" height="22" viewBox="0 0 24 22" fill="none" xmlns="http://www.w3.org/2000/svg">
<path fill-rule="evenodd" clip-rule="evenodd" d="M11.8346 15.1541C11.3801 15.1541 11.0112 14.8181 11.0112 14.4041V7.07715C11.0112 6.66315 11.3801 6.32715 11.8346 6.32715C12.289 6.32715 12.6579 6.66315 12.6579 7.07715V14.4041C12.6579 14.8181 12.289 15.1541 11.8346 15.1541" fill="#6B7280"/>
<path fill-rule="evenodd" clip-rule="evenodd" d="M15.8594 11.4902H7.80953C7.35396 11.4902 6.98621 11.1542 6.98621 10.7402C6.98621 10.3262 7.35396 9.99023 7.80953 9.99023H15.8594C16.3139 9.99023 16.6828 10.3262 16.6828 10.7402C16.6828 11.1542 16.3139 11.4902 15.8594 11.4902" fill="#6B7280"/>
<path fill-rule="evenodd" clip-rule="evenodd" d="M6.69042 1.5C3.64741 1.5 1.68022 3.397 1.68022 6.335V15.165C1.68022 18.103 3.64741 20 6.69042 20H16.9787C20.0228 20 21.9889 18.103 21.9889 15.165V6.335C21.9889 3.397 20.0228 1.5 16.9787 1.5H6.69042ZM16.9787 21.5H6.69042C2.70882 21.5 0.0335693 18.954 0.0335693 15.165V6.335C0.0335693 2.546 2.70882 0 6.69042 0H16.9787C20.9603 0 23.6355 2.546 23.6355 6.335V15.165C23.6355 18.954 20.9603 21.5 16.9787 21.5V21.5Z" fill="#6B7280"/>
</svg>
