<svg width="24" height="22" viewBox="0 0 24 22" fill="none" xmlns="http://www.w3.org/2000/svg">
<path fill-rule="evenodd" clip-rule="evenodd" d="M11.8343 15.1541C11.3798 15.1541 11.011 14.8181 11.011 14.4041V7.07715C11.011 6.66315 11.3798 6.32715 11.8343 6.32715C12.2888 6.32715 12.6576 6.66315 12.6576 7.07715V14.4041C12.6576 14.8181 12.2888 15.1541 11.8343 15.1541" fill="#45AA43"/>
<path fill-rule="evenodd" clip-rule="evenodd" d="M15.8593 11.4902H7.80941C7.35384 11.4902 6.98608 11.1542 6.98608 10.7402C6.98608 10.3262 7.35384 9.99023 7.80941 9.99023H15.8593C16.3138 9.99023 16.6826 10.3262 16.6826 10.7402C16.6826 11.1542 16.3138 11.4902 15.8593 11.4902" fill="#45AA43"/>
<path fill-rule="evenodd" clip-rule="evenodd" d="M6.6903 1.5C3.64729 1.5 1.6801 3.397 1.6801 6.335V15.165C1.6801 18.103 3.64729 20 6.6903 20H16.9786C20.0227 20 21.9888 18.103 21.9888 15.165V6.335C21.9888 3.397 20.0227 1.5 16.9786 1.5H6.6903ZM16.9786 21.5H6.6903C2.7087 21.5 0.0334473 18.954 0.0334473 15.165V6.335C0.0334473 2.546 2.7087 0 6.6903 0H16.9786C20.9601 0 23.6354 2.546 23.6354 6.335V15.165C23.6354 18.954 20.9601 21.5 16.9786 21.5V21.5Z" fill="#45AA43"/>
</svg>
